<?xml version="1.0" encoding="UTF-8"?>
<svg id="Layer_1" xmlns="http://www.w3.org/2000/svg" version="1.1" viewBox="0 0 271 230">
  <!-- Generator: Adobe Illustrator 30.2.1, SVG Export Plug-In . SVG Version: 2.1.1 Build 1)  -->
  <path d="M194,218.8h-117.1c-12.2,0-24.8-11.2-24.7-23.8v-104c0-11.4,10.8-21.8,21.8-23,17.7-1.8,34.9.2,53.1-.8v-21.6c-7.4-4.3-11.3-12.4-9.1-20.8,2.1-7.9,9.3-13.6,17.8-13.4s15.1,5.5,17.2,13.5c2.2,8.3-1.6,16.7-9.3,20.8v21.6l52.6.7c10.7.1,22.1,11.1,22.1,22.2v106.2c0,11.9-12.7,22.5-24.5,22.5l.1-.1ZM114.8,121c-2-7.7-8.7-12.3-16.4-11.3s-12.4,6.5-12.8,13.8c-.4,7.1,4.1,13.5,11.6,15.2s16.3-3.9,17.8-12.2.3-3.5-.2-5.6v.1ZM174.7,110.1c-2.4-.7-6-.6-8.1,0-7.5,2.3-11.7,9.3-10.6,16.7,1,6.9,7.3,12.3,14.2,12.4s13.8-5.3,15-12.5c1.2-7.1-3-14.3-10.5-16.6h0ZM164.4,192.9c5.3-1.6,8-5.3,7.8-10.1s-3.2-7.8-8.1-9h-57.3c-4.9.1-8.2,5.7-8.2,9.4s3.3,8.3,8.4,9.7h57.4Z"/>
  <path d="M42.6,182.1c-12.7.4-23.7-10.1-23.7-23v-32.5c0-12.2,11.5-23.5,23.7-22.6v78.1Z"/>
  <path d="M252.1,162.1c-2.6,11.7-11.5,20.1-23.5,20.2v-78.6c12.3.4,23.4,9.8,23.4,22.3v36.1h.1Z"/>
</svg>